<?xml version="1.0" encoding="UTF-8"?>
<svg xmlns="http://www.w3.org/2000/svg" xmlns:xlink="http://www.w3.org/1999/xlink" width="12pt" height="12pt" viewBox="0 0 12 12" version="1.1">
<g id="surface1">
<path style=" stroke:none;fill-rule:nonzero;fill:rgb(0%,0%,0%);fill-opacity:1;" d="M 11.878906 3.222656 L 11.277344 2.621094 C 11.199219 2.539062 11.105469 2.5 10.996094 2.5 C 10.894531 2.5 10.804688 2.539062 10.722656 2.621094 L 6 7.34375 L 1.273438 2.621094 C 1.195312 2.539062 1.101562 2.5 1 2.5 C 0.894531 2.5 0.800781 2.539062 0.722656 2.621094 L 0.121094 3.222656 C 0.0429688 3.300781 0 3.394531 0 3.496094 C 0 3.605469 0.0429688 3.695312 0.121094 3.773438 L 5.722656 9.378906 C 5.800781 9.457031 5.894531 9.496094 6 9.496094 C 6.101562 9.496094 6.191406 9.457031 6.277344 9.378906 L 11.878906 3.773438 C 11.957031 3.695312 11.996094 3.605469 11.996094 3.496094 C 11.996094 3.394531 11.957031 3.300781 11.878906 3.222656 Z M 11.878906 3.222656 "/>
</g>
</svg>
